<?xml version="1.0" encoding="utf-8"?>
<!-- Generator: Adobe Illustrator 23.1.0, SVG Export Plug-In . SVG Version: 6.00 Build 0)  -->
<svg version="1.1" id="Layer_1" xmlns="http://www.w3.org/2000/svg" xmlns:xlink="http://www.w3.org/1999/xlink" x="0px" y="0px"
	 viewBox="0 0 760.36 265.72" style="enable-background:new 0 0 760.36 265.72;" xml:space="preserve">
<style type="text/css">
	.st0{fill:#00FF00;}
</style>
<g>
	<g id="XMLID_1_">
		<g>
			<path d="M760,106.6c0.04,0.47,0.16,0.82,0.09,1.13c-1.18,4.98-0.88,11.66-4.03,14.44c-2.86,2.54-9.47,0.98-14.43,1.01
				c-10.66,0.08-21.33,0.19-31.99-0.06c-3.64-0.09-4.96,1.15-5.41,4.63c-0.57,4.42-1.72,8.78-2.72,13.65c14.47,0,28.58,0,43.1,0
				c-1.12,5.54-2.15,10.57-3.27,16.09c-12.27,0-24.4,0.27-36.51-0.14c-5.07-0.16-7.6,0.96-8.06,6.38c-0.41,4.75-1.77,9.42-2.8,14.6
				c17.63,0,34.75,0,52.46,0c-1.25,6-2.33,11.19-3.48,16.71c-25.99,0-51.9,0-78.24,0c2.94-14.43,5.83-28.74,8.77-43.04
				c2.88-14.02,5.89-28.01,8.68-42.05c0.48-2.46,1.07-3.81,3.98-3.8c24,0.1,47.99,0.06,71.99,0.09
				C758.77,106.24,759.4,106.48,760,106.6z"/>
			<path d="M746.25,207.84c0,2.24,0,4.45,0,6.99c-197.12,0-394.2,0-591.92,0c0-2.45,0-4.56,0-6.99
				C351.65,207.84,548.73,207.84,746.25,207.84z"/>
			<path d="M734.91,243.32c0.17,2.78-1.13,4-3.8,4c-7.49-0.01-14.99,0-22.48-0.01c-2.7,0-3.86-1.3-3.77-4.04
				c0.12-4.33,0.16-8.67-0.01-12.99c-0.13-3.09,1.25-4.15,4.13-4.13c6.99,0.04,13.99-0.12,20.98,0.01c4.98,0.09,5.06,0.33,4.46,6.18
				c-1.91,0-3.56,0-5.56,0c-0.32-1.28-0.66-2.64-1.08-4.34c-5.16,0-10.4,0-15.98,0c0,5.72,0,11.28,0,17.19c5.29,0,10.53,0,16.12,0
				c0-2.09,0-4.15,0-6.55c-2.41-0.19-4.83-0.38-7.24-0.57c-0.02-0.29-0.03-0.58-0.05-0.87c4.52,0,9.04,0,14.26,0
				C734.89,239.09,734.79,241.21,734.91,243.32z"/>
			<path d="M692.84,226.44c0,6.72,0,13.44,0,21.51c-2.55-0.97-5.06-1.4-6.91-2.74c-5.57-4.06-10.87-8.47-17.13-13.41
				c0,5.75,0,10.32,0,15.23c-2.2,0-3.93,0-6.01,0c0-6.68,0-13.42,0-21.54c2.78,1.02,5.49,1.43,7.48,2.85
				c5.34,3.81,10.37,8.05,16.43,12.85c0-5.6,0-10,0-14.75C688.97,226.44,690.71,226.44,692.84,226.44z"/>
			<path d="M663.99,106.21c0.1,9.13-3.3,15.43-9.86,21.17c-18.66,16.32-36.68,33.37-55.77,50.88c18.91,0,36.86,0,55.4,0
				c-1.2,6.01-2.27,11.34-3.38,16.89c-29.26,0-58.33,0-87.44,0c0.5-8.46,2.96-15.27,9.87-21.17c17.85-15.23,34.91-31.4,52.32-47.15
				c1.18-1.07,2.67-1.8,4.02-2.7c-0.32-0.39-0.65-0.79-0.98-1.19c-16.04,0-32.09,0-48.6,0c0.98-4.93,1.77-9.65,2.95-14.28
				c0.26-1,1.92-2.34,2.94-2.34C611.57,106.19,637.69,106.21,663.99,106.21z"/>
			<path d="M650.02,226.38c0,7,0,13.7,0,20.69c-2.07,0-3.97,0-6.22,0c0-7.12,0-13.82,0-20.69
				C645.99,226.38,647.88,226.38,650.02,226.38z"/>
			<path d="M634.9,226.61c0.02,0.26,0.03,0.53,0.05,0.79c-3.31,0-6.62,0-10.52,0c0,6.81,0,13.01,0,19.71
				c-2.47,0.11-4.36,0.2-6.93,0.31c0-6.69,0-12.79,0-19.58c-3.82,0-7.33,0-10.84,0c0-0.41,0-0.82,0-1.23
				C616.07,226.61,625.49,226.61,634.9,226.61z"/>
			<path d="M599.17,245.89c-0.01,0.36-0.03,0.73-0.04,1.1c-7.66,0-15.32,0-23.36,0c0-6.68,0-13.53,0-20.53c7.83,0,15.51,0,23.2,0
				c0.01,0.34,0.02,0.68,0.02,1.02c-5.37,0-10.74,0-16.49,0c0,2.85,0,5.08,0,8.05c4.88,0,9.9,0,14.91,0
				c0.03,0.48,0.05,0.96,0.07,1.44c-4.88,0-9.76,0-15,0c0,3.09,0,5.47,0,8.92C588.28,245.89,593.73,245.89,599.17,245.89z"/>
			<path d="M568.46,247.06c-10.33,1.49-15.55-6.86-23.62-9.16c-0.15,3.13-0.28,6.02-0.43,9.18c-1.93,0-3.69,0-5.85,0
				c0-6.77,0-13.61,0-20.73c1.91,0,3.65,0,5.82,0c0.13,2.7,0.26,5.3,0.4,8.23c7.46-1.34,12.05-10.12,21.8-7.97
				c-5.58,3.43-10.3,6.33-15.74,9.68C556.75,239.9,562.14,243.19,568.46,247.06z"/>
			<path d="M541.27,106.43c8.45,0,16.55,0,25.34,0c-6.1,29.69-12.13,59.06-18.22,88.68c-8.4,0-16.63,0-25.36,0
				C529.14,165.42,535.19,136,541.27,106.43z"/>
			<path d="M527.89,247.08c-10.16,1.39-13.34-7.03-19.51-10.34c0.11-0.41,0.21-0.82,0.32-1.23c3.7,0,7.4,0,11.28,0
				c0-2.83,0-5.05,0-7.56l0.03-1.6c1.3,0.02,2.6,0.06,3.9,0.11c1,0.03,2.61,2.59,2.7,4.06c0.16,2.29,1.61,5.71-2.53,6.4
				c-2.22,0.37-4.5,0.4-7.8,0.67C520.37,240.93,523.75,243.69,527.89,247.08z"/>
			<path d="M520.01,226.35l-0.03,1.6c-5.53,0-10.77,0-16.54,0c0,6.44,0,12.68,0,19.16c-2.43,0-4.33,0-6.53,0c0-6.9,0-13.63,0-20.84
				C504.73,226.27,512.39,226.18,520.01,226.35z"/>
			<path d="M483.61,106.13c11.79,0.18,23.59,0.07,35.93,0.07c-6.17,29.98-12.23,59.4-18.32,88.98c-8.51,0-16.8,0-25.74,0
				c4.93-24,9.82-47.83,14.71-71.66c-0.19-0.09-0.38-0.19-0.57-0.29c-0.94,1.44-1.93,2.86-2.81,4.34
				c-12.44,20.87-24.99,41.68-37.19,62.69c-2.32,4-4.86,5.77-9.4,5.2c-2.61-0.32-5.29-0.06-8.46-0.06
				c-4.79-24.4-9.54-48.64-14.3-72.87c-0.29-0.03-0.58-0.07-0.88-0.1c-5.01,24.24-10.01,48.48-15.03,72.74c-7.02,0-13.63,0-20.71,0
				c2.6-12.82,5.12-25.35,7.69-37.86c3.22-15.64,6.62-31.24,9.65-46.92c0.65-3.37,1.94-4.31,5.2-4.25c9.99,0.18,19.99,0.18,29.98,0
				c3.25-0.06,4.59,0.82,5.15,4.26c2.49,15.27,5.33,30.48,8.06,45.71c0.17,0.97,0.52,1.9,1.07,3.87c1.33-2.14,2.24-3.57,3.1-5.02
				c8.89-15.05,17.84-30.06,26.6-45.17C478.86,107.18,480.51,106.08,483.61,106.13z"/>
			<path d="M487.68,247.06c-3.76,0.5-6.67,1-8.26-2.75c-0.37-0.88-2.04-1.61-3.16-1.69c-3.31-0.22-6.65-0.22-9.95,0.01
				c-1.11,0.08-2.72,0.88-3.11,1.78c-1.63,3.73-4.46,3.15-8.03,2.59c4.09-6.59,7.91-12.96,11.96-19.16
				c1.84-2.82,6.99-2.73,8.82,0.12C479.86,234.08,483.57,240.33,487.68,247.06z M465.16,240.55c4.53,0,8.07,0,12.32,0
				c-2.09-3.76-3.87-6.97-6.11-11C469.12,233.54,467.31,236.73,465.16,240.55z"/>
			<path d="M446.01,226.25c0,7.34,0,13.94,0,20.83c-1.97,0-3.73,0-6.04,0c0-4.1,0-8.17,0-12.24c-0.37-0.18-0.74-0.37-1.11-0.55
				c-3.55,3.75-7.1,7.5-11.02,11.64c-3.89-4.09-7.5-7.89-11.92-12.55c0,5.1,0,9.22,0,13.65c-2.38,0-4.12,0-6.18,0
				c0-6.69,0-13.43,0-20.71c10.44-1.73,11.3,9.74,18.25,12.83C434.35,236.1,435.44,224.87,446.01,226.25z"/>
			<path d="M381.06,245.69c0,0.38,0.01,0.76,0.01,1.14c-7.53,0-15.07,0-22.95,0c0-6.5,0-13.23,0-20.36c1.97,0,3.85,0,6.16,0
				c0,6.07,0,12.16,0,19.22C370.36,245.69,375.71,245.69,381.06,245.69z"/>
			<path d="M351.72,106.61c8.23,0,16.46,0,25.32,0c-1.88,9.16-3.73,18.21-5.59,27.26c-3.96,19.22-8.03,38.43-11.78,57.69
				c-0.63,3.24-1.92,3.98-4.91,3.9c-6.97-0.18-13.95-0.06-21.29-0.06C339.59,165.61,345.62,136.3,351.72,106.61z"/>
			<path d="M348.61,246.78c-3.51,0.95-6.19,1.31-8.05-2.38c-0.49-0.98-2.33-1.66-3.61-1.78c-2.96-0.25-5.98-0.25-8.94,0
				c-1.29,0.11-3.22,0.77-3.64,1.71c-1.64,3.73-4.5,3.23-8.08,2.73c4.12-6.67,7.99-13.19,12.14-19.51c1.67-2.54,6.89-2.32,8.56,0.29
				C340.91,233.96,344.61,240.22,348.61,246.78z M326.26,240.62c4.4,0,7.98,0,12.48,0c-2.3-3.99-4.11-7.15-6.32-11
				C330.15,233.67,328.35,236.88,326.26,240.62z"/>
			<path d="M339.74,106.46c0.15,0,0.29,0.16,0.96,0.55c-0.96,4.63-1.8,9.5-3.14,14.23c-0.26,0.94-2.46,1.85-3.78,1.88
				c-7.81,0.17-15.63,0.08-24.02,0.08c-4.96,24-9.89,47.84-14.87,71.92c-8.49,0-16.75,0-25.32,0c4.91-23.93,9.78-47.65,14.76-71.93
				c-9.27,0-18.05,0-27.5,0c1.05-5.44,1.87-10.32,3.05-15.11c0.2-0.82,1.93-1.79,2.95-1.79
				C288.47,106.27,314.11,106.37,339.74,106.46z"/>
			<path d="M310.69,226.49c0.08,0.24,0.16,0.48,0.24,0.73c-0.93,0.15-1.85,0.39-2.79,0.43c-8.14,0.34-8.14,0.33-8.13,8.75
				c0,3.45,0,6.91,0,10.67c-2.34,0-4.23,0-6.64,0c0-6.28,0-12.51,0-19.44c-4,0-7.53,0-11.05,0c0.01-0.38,0.02-0.76,0.02-1.14
				C291.79,226.49,301.24,226.49,310.69,226.49z"/>
			<path d="M273.2,226.45c0,6.81,0,13.54,0,20.6c-1.96,0-3.85,0-6.03,0c0-6.77,0-13.5,0-20.6
				C269.2,226.45,271.07,226.45,273.2,226.45z"/>
			<path d="M254.46,237.13c0.09,1.97,0.66,4.32,0.15,6.4c-0.35,1.45-2.15,3.55-3.38,3.6c-7.63,0.33-15.29,0.33-22.92,0
				c-1.22-0.06-3.02-2.17-3.37-3.62c-0.57-2.36-0.23-4.95-0.15-7.44c0.3-10.17-2.54-9.95,10.26-10c4.98-0.01,9.97,0.14,14.95,0.03
				c4.39-0.1,5.62,1.87,4.22,6.24c-1.97,0-3.6,0-5.72,0c0.55-4.62-2.23-4.96-5.79-4.72c-3.59,0.24-7.22,0.05-11.04,0.05
				c0,6.18,0,11.74,0,17.59c5.47,0,10.7,0,16.24,0c0-2.26,0-4.32,0-6.65c-2.52-0.19-4.89-0.38-7.26-0.56c0-0.31-0.01-0.62-0.02-0.92
				C245.04,237.13,249.44,237.13,254.46,237.13z"/>
			<path d="M251.17,127.2c2.1,11.41-3.68,23.89-14.52,29.21c-5.23,2.57-11.21,4.38-16.99,4.91c-9.75,0.9-19.62,0.62-29.43,0.6
				c-3.05,0-4.37,0.89-4.95,4.03c-1.8,9.77-3.95,19.47-5.98,29.23c-8.48,0-16.59,0-25.24,0c1.88-9.38,3.67-18.47,5.53-27.53
				c3.91-19.05,7.86-38.09,11.81-57.13c0.42-2.03,0.23-4.42,3.53-4.34c17.62,0.42,35.27,0.18,52.85,1.26
				C240.23,108.21,249.23,116.7,251.17,127.2z M220.68,143.57c4.49-2.39,6.86-6.35,6.12-11.51c-0.72-4.97-3.87-8.31-8.84-8.83
				c-7.7-0.81-15.48-1-23.47-1.47c-1.76,8.53-3.37,16.28-5.01,24.25c8.13,0,15.92,0.19,23.68-0.11
				C215.71,145.8,218.39,144.79,220.68,143.57z"/>
			<path d="M212.22,226.43c0,6.87,0,13.6,0,20.74c-2.22,0-4.01,0-6.07,0c0-6.92,0-13.66,0-20.74
				C208.22,226.43,210.09,226.43,212.22,226.43z"/>
			<path d="M194.09,235.95c0.01,9.95-0.95,11.05-10.89,11.34c-1.73,0.05-3.47,0.08-5.22,0.08l-0.01-2.05c2.01,0,3.99-0.06,5.96-0.27
				c1.26-0.14,3.15-2.41,3.29-3.83c1.09-11.74,0.38-13.51-9.65-13.56l0.01-1.4c2.89,0,5.75,0.04,8.61,0.18
				c7.05,0.35,7.89,1.57,7.9,8.51C194.09,235.29,194.09,235.62,194.09,235.95z"/>
			<path d="M177.97,245.32l0.01,2.05c-4.61,0.03-9.28-0.05-14.18-0.05c0-6.95,0-13.81,0-20.96c4.72,0,9.28-0.1,13.78-0.1l-0.01,1.4
				c-0.92-0.01-1.92,0-3.01,0.02c-1.29,0.02-2.59,0.2-4.16,0.33c0,5.81,0,11.38,0,17.22C172.97,245.23,175.49,245.32,177.97,245.32z
				"/>
			<path class="st0" d="M155.63,0.25c10.61,32.22,20.88,63.41,31.62,96.06c-11.38-7.03-21.76-12.68-31.25-19.55
				c-7.32-5.3-14.06-6.13-22.49-3.24c-11.1,3.8-22.63,6.37-35.4,9.86C117.57,55.26,136.23,28.28,155.63,0.25z M176.84,83.08
				c-7.86-23.9-15.29-46.51-23.04-70.08c-14.12,20.41-27.7,40.05-41.97,60.69c9.47-2.59,17.75-4.43,25.73-7.16
				c6.2-2.13,11.17-1.54,16.56,2.38C160.98,73.89,168.52,77.96,176.84,83.08z"/>
			<path class="st0" d="M142.21,88.27c3.86-1.05,11.05,5.23,10.38,9.11c-6.87,40.02-13.63,80.06-20.81,120.03
				c-5.32,29.53-26.78,43.26-52.59,46.88c-12.41,1.74-24.82,1.69-37.67-1.08c6.29-2.42,12.11-4.39,17.7-6.86
				c16.75-7.42,30.2-18.85,37.25-35.86c3.81-9.22,5.06-19.59,6.81-29.55c5.3-30.34,10.35-60.71,15.3-91.1
				c0.63-3.82,2.09-5.67,5.92-6.53C130.47,91.96,136.28,89.86,142.21,88.27z"/>
			<path d="M53.3,229.36c6.8,2.33,13.99,3.52,21.26,5.28c-9.97,9.43-22.55,15.06-36.2,18.66c-1.61,0.42-3.31,0.53-4.86,1.1
				c-9.68,3.56-16.46-0.56-22.53-7.81c-9.71-11.61-12.15-25.03-9.99-39.4c3.35-22.38,7.22-44.68,10.91-67
				c2.45-14.78,4.99-29.54,7.53-44.6c13.86,0,27.58,0,41.69,0c-3.09,18.58-6.24,36.92-9.18,55.28c-3,18.73-5.84,37.48-8.64,56.23
				c-0.36,2.45-0.17,5-0.03,7.49C43.65,221.49,46.69,227.09,53.3,229.36z"/>
		</g>
		<g>
		</g>
	</g>
</g>
</svg>
