<?xml version="1.0" encoding="utf-8"?>
<!-- Generator: Adobe Illustrator 23.1.0, SVG Export Plug-In . SVG Version: 6.00 Build 0)  -->
<svg version="1.1" id="Layer_1" xmlns="http://www.w3.org/2000/svg" xmlns:xlink="http://www.w3.org/1999/xlink" x="0px" y="0px"
	 viewBox="0 0 476.98 672.94" style="enable-background:new 0 0 476.98 672.94;" xml:space="preserve">
<style type="text/css">
	.st0{fill:#00FF00;}
	.st1{fill:#FFFFFF;}
</style>
<g>
	<g id="XMLID_1_">
		<g>
			<path class="st0" d="M476.72,241.95c-0.39,0.28-0.78,0.56-1.17,0.84c-9.61-5.91-19.24-11.8-28.85-17.72
				c-23.8-14.68-47.62-29.32-71.33-44.13c-3.25-2.03-6.09-2.38-9.77-1.37c-37.35,10.28-74.75,20.39-112.14,30.54
				c-0.63,0.17-1.28,0.22-3.32,0.55c49.08-70.48,97.54-140.07,146.53-210.41C423.58,81.5,450.15,161.73,476.72,241.95z
				 M444.78,206.9c1.61,0.99,3.25,1.93,6.18,3.66c-19.87-60.12-39.25-118.75-58.93-178.28c-35.97,51.68-71.4,102.58-107.29,154.15
				c2.09-0.48,3.36-0.73,4.61-1.06c26.16-7.07,52.31-14.21,78.52-21.12c2.49-0.66,5.93-0.84,7.96,0.39
				C398.92,178.54,421.82,192.77,444.78,206.9z"/>
			<path class="st0" d="M384.99,235.7c4.1,3.07,5.08,6.36,4.21,11.44c-14.14,82.68-27.86,165.43-42.19,248.08
				c-4.17,24.08-8.75,48.21-15.19,71.75c-11.95,43.67-40.17,73.48-82.02,90.52c-29.04,11.82-59.46,15.88-90.49,15.1
				c-16.77-0.42-33.48-2.68-50.21-4.19c-1.92-0.17-3.8-0.79-6.37-1.34c9.55-3.02,18.5-5.53,27.23-8.68
				c35.49-12.81,67.3-31.41,91.65-60.88c6.63-8.02,11.48-17.5,17.58-26c15.04-21,16.55-46.09,20.81-70.12
				c13.78-77.85,26.76-155.83,40.05-233.76c1.31-7.71,2.71-15.41,3.87-23.15c0.45-3,1.66-4.48,4.77-5.37
				c18.55-5.3,37.04-10.81,55.49-16.44c3.27-0.99,5.59-0.58,8.05,1.83C376.29,228.44,380.46,232.33,384.99,235.7z"/>
			<path class="st1" d="M193.82,591.36c-4.13,3.64-7.95,7.28-12.05,10.57c-28.98,23.28-62.52,36.31-98.61,43.42
				c-7.18,1.42-14.53,1.94-21.7,3.38c-4.02,0.8-7.04-0.35-10.19-2.54c-32.94-22.92-50.23-54.25-50.99-94.51
				c-0.43-22.63,3.69-44.75,7.45-66.92c8.86-52.18,17.7-104.36,26.54-156.55c4.7-27.73,9.39-55.46,14.04-83.2
				c0.4-2.38,0.94-3.93,3.93-3.92c33.83,0.11,67.66,0.11,101.48,0.15c0.31,0,0.62,0.18,1.56,0.49c-1.08,6.7-2.12,13.5-3.26,20.3
				c-13.15,78.12-26.45,156.22-39.4,234.38c-2.93,17.73-5.31,35.67-2.35,53.69c2.24,13.66,9.57,23.83,21.92,30.41
				c18.27,9.74,37.78,12.34,58.11,10.53c0.83-0.07,1.65-0.16,2.47-0.22C192.9,590.81,193.03,590.95,193.82,591.36z"/>
		</g>
		<g>
		</g>
	</g>
</g>
</svg>
