<svg height="841" viewBox="0 0 1442 841" width="1442" xmlns="http://www.w3.org/2000/svg" xmlns:xlink="http://www.w3.org/1999/xlink"><linearGradient id="a" x1="10.830485%" x2="87.965022%" y1="45.563729%" y2="98.417121%"><stop offset="0" stop-color="#f7f9fc"/><stop offset="1" stop-color="#eaeef3"/></linearGradient><path d="m-151.302275 435.075986c72.1882582 0 97.1168037-94.638278 305.105973-94.638278 177.713243 0 269.283792 107.54415 369.178347 215.087343 168.204321 181.08563 327.42974 285.348821 509.181495 285.348821 201.1766 0 496.24271-88.902336 496.24271-301.30239 0-106.109208-7.21864-487.7912773-7.21864-596.5084273 0-104.4954957-320.14913-110.2304827-533.287727-110.2304827-213.138602 0-1212.592906-96.534964-1212.592906 199.1337739 0 31.5954856-31.009446 403.1096401 73.390748 403.1096401z" fill="url(#a)" fill-rule="evenodd" transform="matrix(-1 0 0 -1 1442 840.9375)"/></svg>