<svg id="Layer_1" data-name="Layer 1" xmlns="http://www.w3.org/2000/svg" viewBox="0 0 315.52 88.97"><defs><style>.cls-1{fill:#3272b9;}</style></defs><title>Triggr_Blue</title><path class="cls-1" d="M71,93.69A5,5,0,0,0,67.15,92H64.22a4.17,4.17,0,0,1-3.41-1.73,7.22,7.22,0,0,1-1.53-4.76V65.78H65a5.73,5.73,0,0,0,4-1.46,5,5,0,0,0,1.64-3.77A5.21,5.21,0,0,0,69,56.61a5.72,5.72,0,0,0-4-1.46H59.28V44.35a5.92,5.92,0,1,0-11.84,0v10.8H45.08a5.72,5.72,0,0,0-4,1.46,5.21,5.21,0,0,0-1.64,3.94,5,5,0,0,0,1.64,3.77,5.72,5.72,0,0,0,4,1.46h2.35V85.46a19.8,19.8,0,0,0,2.17,9.28,17,17,0,0,0,6,6.61,15.84,15.84,0,0,0,8.57,2.45h1.55a7,7,0,0,0,4.7-1.59,5.52,5.52,0,0,0,2-4.33A6.07,6.07,0,0,0,71,93.7Z" transform="translate(-39.42 -34.38)"/><path class="cls-1" d="M109.19,54.48h0a16.73,16.73,0,0,0-7.91-1.57,21,21,0,0,0-8.77,1.87,20.52,20.52,0,0,0-4.32,2.64c-.64-2.56-2.64-4-5.7-4a5.49,5.49,0,0,0-5.92,5.92V97.87a5.83,5.83,0,0,0,1.61,4.39,6,6,0,0,0,4.31,1.53,5.83,5.83,0,0,0,4.39-1.61,6,6,0,0,0,1.53-4.3V72.7a7.5,7.5,0,0,1,3.15-6.38c2.23-1.67,5.27-2.52,9-2.52a32.57,32.57,0,0,1,5.28.57,8.57,8.57,0,0,0,1.61.2,4.89,4.89,0,0,0,5-3.86,4.42,4.42,0,0,0,.17-1.37C112.62,58,112,56,109.19,54.48Z" transform="translate(-39.42 -34.38)"/><path class="cls-1" d="M121.87,34.38a7.28,7.28,0,0,0-5.15,12.44A7.28,7.28,0,1,0,127,36.53,7.06,7.06,0,0,0,121.87,34.38Z" transform="translate(-39.42 -34.38)"/><path class="cls-1" d="M121.87,53.43a5.92,5.92,0,0,0-4.26,1.66,5.8,5.8,0,0,0-1.74,4.35V97.78A6.09,6.09,0,0,0,126.22,102a5.92,5.92,0,0,0,1.66-4.26V59.43a5.75,5.75,0,0,0-6-6Z" transform="translate(-39.42 -34.38)"/><path class="cls-1" d="M171.89,56.35h0a26,26,0,0,0-13-3.27,26.37,26.37,0,0,0-13.11,3.27,23.31,23.31,0,0,0-9.06,9.11,26.82,26.82,0,0,0-3.22,13.19,28.19,28.19,0,0,0,3,13.06,22.6,22.6,0,0,0,8.44,9.13,23.25,23.25,0,0,0,12.25,3.29,20.38,20.38,0,0,0,10.75-2.91,20.92,20.92,0,0,0,4.61-3.8,17.8,17.8,0,0,1-1.87,7.83,13.06,13.06,0,0,1-4.91,5.31,13.35,13.35,0,0,1-6.86,1.8,17.76,17.76,0,0,1-7.35-1.45,13.63,13.63,0,0,1-5.24-4.12,5.89,5.89,0,0,0-4.81-2.44,6.09,6.09,0,0,0-3.35,1.07,5.31,5.31,0,0,0-2.48,4.41,5.48,5.48,0,0,0,1.3,3.41,25.83,25.83,0,0,0,9.55,7.49,29,29,0,0,0,12.22,2.6,25.56,25.56,0,0,0,13.19-3.46,24.1,24.1,0,0,0,9.09-9.46,27.46,27.46,0,0,0,3.21-13.17V78.65a26.56,26.56,0,0,0-3.27-13.2A23.73,23.73,0,0,0,171.89,56.35Zm-13,7.71A13.66,13.66,0,0,1,166,65.9,12.55,12.55,0,0,1,170.79,71a16.24,16.24,0,0,1,1.76,7.61,16,16,0,0,1-1.75,7.56,12.6,12.6,0,0,1-4.83,5.1,14.46,14.46,0,0,1-14.13,0A13.06,13.06,0,0,1,147,86.2a15.67,15.67,0,0,1-1.79-7.55,15.92,15.92,0,0,1,1.79-7.6,13,13,0,0,1,4.87-5.15A13.66,13.66,0,0,1,158.9,64.06Z" transform="translate(-39.42 -34.38)"/><path class="cls-1" d="M226.62,56.35h0a26,26,0,0,0-13-3.27,26.37,26.37,0,0,0-13.11,3.27,23.31,23.31,0,0,0-9.06,9.11,26.82,26.82,0,0,0-3.22,13.19,28.19,28.19,0,0,0,3,13.06,22.6,22.6,0,0,0,8.44,9.13,23.25,23.25,0,0,0,12.25,3.29,20.38,20.38,0,0,0,10.75-2.91,20.92,20.92,0,0,0,4.61-3.8,17.8,17.8,0,0,1-1.87,7.83,13.06,13.06,0,0,1-4.91,5.31,13.35,13.35,0,0,1-6.86,1.8,17.76,17.76,0,0,1-7.35-1.45A13.63,13.63,0,0,1,201,106.8a5.88,5.88,0,0,0-4.81-2.44,6.09,6.09,0,0,0-3.35,1.07,5.31,5.31,0,0,0-2.48,4.41,5.48,5.48,0,0,0,1.3,3.41,25.83,25.83,0,0,0,9.55,7.49,29,29,0,0,0,12.22,2.6,25.56,25.56,0,0,0,13.19-3.46,24.11,24.11,0,0,0,9.09-9.46,27.46,27.46,0,0,0,3.21-13.17V78.65a26.57,26.57,0,0,0-3.27-13.2A23.73,23.73,0,0,0,226.62,56.35Zm-13,7.71a13.66,13.66,0,0,1,7.07,1.84A12.54,12.54,0,0,1,225.51,71a16.24,16.24,0,0,1,1.76,7.61,16,16,0,0,1-1.75,7.56,12.6,12.6,0,0,1-4.83,5.1,14.46,14.46,0,0,1-14.13,0,13.06,13.06,0,0,1-4.88-5.11,15.66,15.66,0,0,1-1.79-7.55,15.92,15.92,0,0,1,1.79-7.6,13,13,0,0,1,4.87-5.15A13.66,13.66,0,0,1,213.63,64.06Z" transform="translate(-39.42 -34.38)"/><path class="cls-1" d="M278,54.48a16.74,16.74,0,0,0-7.91-1.57,21,21,0,0,0-8.77,1.87A20.54,20.54,0,0,0,257,57.41c-.64-2.56-2.64-4-5.7-4a5.5,5.5,0,0,0-5.92,5.92V97.87a5.83,5.83,0,0,0,1.61,4.39,6,6,0,0,0,4.31,1.53,5.84,5.84,0,0,0,4.39-1.62,6,6,0,0,0,1.53-4.3V72.7a7.5,7.5,0,0,1,3.15-6.38c2.23-1.67,5.27-2.52,9-2.52a32.56,32.56,0,0,1,5.28.57,8.57,8.57,0,0,0,1.61.2,4.89,4.89,0,0,0,5-3.86,4.42,4.42,0,0,0,.17-1.37C281.42,58,280.83,56,278,54.48Z" transform="translate(-39.42 -34.38)"/><path class="cls-1" d="M327.44,49.69a29.35,29.35,0,0,0-5.74.27,4,4,0,0,0-2.21,6.79l16.94,16.94a7,7,0,0,1,0,9.9L319.5,100.54a4,4,0,0,0,2.2,6.78,29,29,0,1,0,5.75-57.63Z" transform="translate(-39.42 -34.38)"/><path class="cls-1" d="M306.83,63.88a4,4,0,0,0-6.32.86,29,29,0,0,0,0,27.81,4,4,0,0,0,6.32.86l11.23-11.23a5,5,0,0,0,0-7.07Z" transform="translate(-39.42 -34.38)"/></svg>